<?xml version="1.0" encoding="UTF-8"?><svg id="Capa_2" xmlns="http://www.w3.org/2000/svg" viewBox="0 0 537.88 64.38"><defs><style>.cls-1{fill:#7d00e2;}</style></defs><g id="Capa_1-2"><g><g><path class="cls-1" d="M101.72,47.18h21.35v-5.81h-16.32v-11.99h43.12v35.01h-49.59c-6.72,0-12.17-7.77-12.17-17.35V23.96c0-9.58,5.45-17.35,12.17-17.35h49.93v15.87h-48.48v24.69Z"/><path class="cls-1" d="M174.92,22.12v5.55h24.63v15.59h-24.63v5.54h24.63v15.59h-42V6.53h42v15.59h-24.63Z"/><path class="cls-1" d="M287.52,47.18h21.35v-5.81h-16.32v-11.99h43.12v35.01h-49.59c-6.72,0-12.17-7.77-12.17-17.35V23.96c0-9.58,5.45-17.35,12.17-17.35h49.93v15.87h-48.48v24.69Z"/><path class="cls-1" d="M360.41,22.12v5.55h24.63v15.59h-24.63v5.54h24.63v15.59h-42V6.53h42v15.59h-24.63Z"/><path class="cls-1" d="M467.51,6.44v57.85h-18.14v-29.48l-19.35,29.48h0l-19.35-29.48v29.48h-18.14V6.43h18.14l19.35,30.49,19.35-30.48h18.14Z"/><path class="cls-1" d="M266.8,6.43v57.85h-17.56s-24.69-29.48-24.69-29.48v29.48h-17.52V6.43h17.52l24.69,29.26V6.43h17.56Z"/><path class="cls-1" d="M510.83,41.31h27.05v23.07h-64.02l23.53-41.9h-23.38V6.53h56.65l-19.83,34.78Z"/></g><g><path class="cls-1" d="M59.31,5.42l12.71,9.12-23.48,44.78L5.03,33.7l6.17-14.54,24.87-7.1,23.25-6.64m.94-5.42l-25.55,7.3L7.57,15.05,.37,32.02c-.91,2.14-.09,4.63,1.92,5.81l44.02,25.91c1.14,.67,2.45,.8,3.63,.46s2.22-1.13,2.83-2.31l23.76-45.3c1.07-2.05,.48-4.58-1.4-5.93L60.26,0h0Z"/><g><path class="cls-1" d="M31.08,34.41l-2.44,.7-3.69-12.91,5.72-1.63,2.75,9.64c.52,1.81-.53,3.69-2.34,4.21Z"/><path class="cls-1" d="M50.29,28.93l2.44-.7-3.69-12.91-5.72,1.63,2.75,9.64c.52,1.81,2.4,2.85,4.21,2.34Z"/></g></g></g></g></svg>