<?xml version="1.0" encoding="utf-8"?>
<!-- Generator: Adobe Adobe Illustrator 29.2.0, SVG Export Plug-In . SVG Version: 6.00 Build 0)  -->
<svg version="1.1" id="Layer_1" xmlns="http://www.w3.org/2000/svg" xmlns:xlink="http://www.w3.org/1999/xlink" x="0px" y="0px"
	 width="198.43px" height="198.43px" viewBox="0 0 198.43 198.43" style="enable-background:new 0 0 198.43 198.43;"
	 xml:space="preserve" shape-rendering="geometricPrecision">
<style type="text/css">
	.st0{fill:#933DA7;}
	.st1{fill:#BAFF53;}
</style>
<g>
	<rect x="5.35" y="5.69" class="st0" width="187.85" height="187.85"/>
</g>
<g>
	<path class="st1" d="M136.75,51.35l22.91,16.44l-42.34,80.73l-78.44-46.18L50,76.12l44.84-12.81L136.75,51.35 M138.45,41.58
		L92.39,54.73L43.45,68.71L30.48,99.3c-1.64,3.86-0.16,8.35,3.46,10.48l79.37,46.72c2.06,1.21,4.42,1.44,6.54,0.83
		c2.12-0.61,4-2.04,5.11-4.16l42.84-81.68c1.94-3.69,0.86-8.25-2.53-10.68L138.45,41.58L138.45,41.58z"/>
	<g>
		<path class="st1" d="M85.84,103.63l-4.41,1.26l-6.65-23.27l10.31-2.94l4.96,17.37C90.98,99.3,89.1,102.7,85.84,103.63z"/>
		<path class="st1" d="M120.48,93.73l4.41-1.26l-6.65-23.27l-10.31,2.94l4.96,17.37C113.83,92.77,117.23,94.66,120.48,93.73z"/>
	</g>
</g>
</svg>
