<?xml version="1.0" encoding="utf-8"?>
<!-- Generator: Adobe Adobe Illustrator 29.2.0, SVG Export Plug-In . SVG Version: 6.00 Build 0)  -->
<svg version="1.1" id="Layer_1" xmlns="http://www.w3.org/2000/svg" xmlns:xlink="http://www.w3.org/1999/xlink" x="0px" y="0px"
	 width="467.72px" height="70.87px" viewBox="0 0 467.72 70.87" style="enable-background:new 0 0 467.72 70.87;"
	 xml:space="preserve">
<style type="text/css">
	.st0{fill:#BAFF53;}
</style>
<g>
	<g>
		<path class="st0" d="M22.58,47.2h21.35v-5.81H27.61V29.4h43.12v35.01H21.14c-6.72,0-12.17-7.77-12.17-17.35V23.99
			c0-9.58,5.45-17.35,12.17-17.35h49.93v15.87H22.58V47.2z"/>
		<path class="st0" d="M95.79,22.14v5.55h24.63v15.59H95.79v5.54h24.63v15.59H95.79H78.41V6.56h1.07h40.94v15.59H95.79z"/>
		<path class="st0" d="M208.39,47.2h21.35v-5.81h-16.32V29.4h43.12v35.01h-49.59c-6.72,0-12.17-7.77-12.17-17.35V23.99
			c0-9.58,5.45-17.35,12.17-17.35h49.93v15.87h-48.48V47.2z"/>
		<path class="st0" d="M281.28,22.14v5.55h24.63v15.59h-24.63v5.54h24.63v15.59h-24.63H263.9V6.56h1.07h40.94v15.59H281.28z"/>
		<path class="st0" d="M388.38,6.46v57.85h-18.14V34.83l-19.35,29.48l0,0l-19.35-29.48v29.48H313.4V6.46h18.14l19.35,30.49
			l19.35-30.48H388.38z"/>
		<path class="st0" d="M187.67,6.46v57.85h-14.04h-3.51h-0.01V64.3l-24.69-29.48v29.48H127.9V6.46h17.52l24.69,29.26V6.46H187.67z"
			/>
		<path class="st0" d="M431.7,41.34h27.05v23.07h-46.5h-17.51l23.53-41.9h-23.38V6.56h35.58h21.06L431.7,41.34z"/>
	</g>
</g>
</svg>
