<?xml version="1.0" encoding="utf-8"?>
<!-- Generator: Adobe Adobe Illustrator 29.2.0, SVG Export Plug-In . SVG Version: 6.00 Build 0)  -->
<svg version="1.1" id="Layer_1" xmlns="http://www.w3.org/2000/svg" xmlns:xlink="http://www.w3.org/1999/xlink" x="0px" y="0px"
	 width="552.76px" height="70.87px" viewBox="0 0 552.76 70.87" style="enable-background:new 0 0 552.76 70.87;"
	 xml:space="preserve">
<style type="text/css">
	.st0{fill:#933DA7;}
</style>
<g>
	<g>
		<g>
			<path class="st0" d="M109.49,50.75h21.35v-5.81h-16.32V32.95h43.12v35.01h-49.59c-6.72,0-12.17-7.77-12.17-17.35V27.54
				c0-9.58,5.45-17.35,12.17-17.35h49.93v15.87h-48.48V50.75z"/>
		</g>
		<g>
			<path class="st0" d="M182.69,25.69v5.55h24.63v15.59h-24.63v5.54h24.63v15.59h-24.63h-17.38V10.1h1.07h40.94v15.59H182.69z"/>
		</g>
		<g>
			<path class="st0" d="M295.3,50.75h21.35v-5.81h-16.32V32.95h43.12v35.01h-49.59c-6.72,0-12.17-7.77-12.17-17.35V27.54
				c0-9.58,5.45-17.35,12.17-17.35h49.93v15.87H295.3V50.75z"/>
		</g>
		<g>
			<path class="st0" d="M368.19,25.69v5.55h24.63v15.59h-24.63v5.54h24.63v15.59h-24.63h-17.38V10.1h1.07h40.94v15.59H368.19z"/>
		</g>
		<g>
			<path class="st0" d="M475.29,10.01v57.85h-18.14V38.38L437.8,67.86l0,0l-19.35-29.48v29.48H400.3V10.01h18.14l19.35,30.49
				l19.35-30.48H475.29z"/>
		</g>
		<g>
			<path class="st0" d="M274.57,10.01v57.85h-14.04h-3.51h-0.01v-0.01l-24.69-29.48v29.48h-17.52V10.01h17.52l24.69,29.26V10.01
				H274.57z"/>
		</g>
		<g>
			<path class="st0" d="M518.61,44.88h27.05v23.07h-46.5h-17.51l23.53-41.9h-23.38V10.1h35.58h21.06L518.61,44.88z"/>
		</g>
	</g>
	<g>
		<g>
			<path class="st0" d="M67.09,8.99L79.8,18.1L56.32,62.88L12.81,37.27l6.17-14.54l24.87-7.1L67.09,8.99 M68.03,3.57l-25.55,7.3
				l-27.14,7.75l-7.2,16.97c-0.91,2.14-0.09,4.63,1.92,5.81l44.02,25.91c1.14,0.67,2.45,0.8,3.63,0.46
				c1.18-0.34,2.22-1.13,2.83-2.31l23.76-45.3c1.07-2.05,0.48-4.58-1.4-5.93L68.03,3.57L68.03,3.57z"/>
		</g>
		<g>
			<g>
				<path class="st0" d="M38.85,37.98l-2.44,0.7l-3.69-12.91l5.72-1.63l2.75,9.64C41.71,35.58,40.66,37.47,38.85,37.98z"/>
			</g>
			<g>
				<path class="st0" d="M58.07,32.5l2.44-0.7l-3.69-12.91l-5.72,1.63l2.75,9.64C54.38,31.97,56.26,33.01,58.07,32.5z"/>
			</g>
		</g>
	</g>
</g>
</svg>
