<?xml version="1.0" encoding="utf-8"?>
<!-- Generator: Adobe Adobe Illustrator 29.2.0, SVG Export Plug-In . SVG Version: 6.00 Build 0)  -->
<svg version="1.1" id="Layer_1" xmlns="http://www.w3.org/2000/svg" xmlns:xlink="http://www.w3.org/1999/xlink" x="0px" y="0px"
	 width="552.76px" height="70.87px" viewBox="0 0 552.76 70.87" style="enable-background:new 0 0 552.76 70.87;"
	 xml:space="preserve">
<style type="text/css">
	.st0{fill:#BAFF53;}
</style>
<g>
	<g>
		<path class="st0" d="M109.49,50.07h21.35v-5.81h-16.32V32.27h43.12v35.01h-49.59c-6.72,0-12.17-7.77-12.17-17.35V26.86
			c0-9.58,5.45-17.35,12.17-17.35h49.93v15.87h-48.48V50.07z"/>
		<path class="st0" d="M182.69,25.01v5.55h24.63v15.59h-24.63v5.54h24.63v15.59h-24.63h-17.38V9.43h1.07h40.94v15.59H182.69z"/>
		<path class="st0" d="M295.3,50.07h21.35v-5.81h-16.32V32.27h43.12v35.01h-49.59c-6.72,0-12.17-7.77-12.17-17.35V26.86
			c0-9.58,5.45-17.35,12.17-17.35h49.93v15.87H295.3V50.07z"/>
		<path class="st0" d="M368.19,25.01v5.55h24.63v15.59h-24.63v5.54h24.63v15.59h-24.63h-17.38V9.43h1.07h40.94v15.59H368.19z"/>
		<path class="st0" d="M475.29,9.33v57.85h-18.14V37.7L437.8,67.18l0,0L418.44,37.7v29.48H400.3V9.33h18.14l19.35,30.49l19.35-30.48
			H475.29z"/>
		<path class="st0" d="M274.57,9.33v57.85h-14.04h-3.51h-0.01v-0.01L232.32,37.7v29.48h-17.52V9.33h17.52l24.69,29.26V9.33H274.57z"
			/>
		<path class="st0" d="M518.61,44.21h27.05v23.07h-46.5h-17.51l23.53-41.9h-23.38V9.43h35.58h21.06L518.61,44.21z"/>
	</g>
	<g>
		<path class="st0" d="M67.09,8.31l12.71,9.12L56.32,62.2L12.81,36.59l6.17-14.54l24.87-7.1L67.09,8.31L67.09,8.31z M68.03,2.89
			l-25.55,7.3l-27.14,7.75l-7.2,16.97c-0.91,2.14-0.09,4.63,1.92,5.81l44.02,25.91c1.14,0.67,2.45,0.8,3.63,0.46
			c1.18-0.34,2.22-1.13,2.83-2.31l23.76-45.3c1.07-2.05,0.48-4.58-1.4-5.93L68.03,2.89L68.03,2.89z"/>
		<g>
			<path class="st0" d="M38.85,37.31L36.41,38L32.72,25.1l5.72-1.63l2.75,9.64C41.71,34.91,40.66,36.79,38.85,37.31z"/>
			<path class="st0" d="M58.07,31.82l2.44-0.7l-3.69-12.91l-5.72,1.63l2.75,9.64C54.38,31.29,56.26,32.33,58.07,31.82z"/>
		</g>
	</g>
</g>
</svg>
